<mxfile host="app.diagrams.net" modified="2024-04-11T22:31:00.178Z" agent="Mozilla/5.0 (Macintosh; Intel Mac OS X 10_15_7) AppleWebKit/537.36 (KHTML, like Gecko) Chrome/123.0.0.0 Safari/537.36" etag="JOQieFygHW-TaMJ1I5yt" version="24.2.3" type="github">
  <diagram name="Page-1" id="SwVVyBtVAP_0MDVwsoYe">
    <mxGraphModel dx="912" dy="571" grid="1" gridSize="10" guides="1" tooltips="1" connect="1" arrows="1" fold="1" page="1" pageScale="1" pageWidth="827" pageHeight="1169" math="0" shadow="0">
      <root>
        <mxCell id="0" />
        <mxCell id="1" parent="0" />
        <mxCell id="nqyS8_C2m5BWfOo8GOha-3" style="edgeStyle=orthogonalEdgeStyle;rounded=0;orthogonalLoop=1;jettySize=auto;html=1;entryX=0.5;entryY=0;entryDx=0;entryDy=0;" edge="1" parent="1" source="nqyS8_C2m5BWfOo8GOha-1" target="nqyS8_C2m5BWfOo8GOha-2">
          <mxGeometry relative="1" as="geometry" />
        </mxCell>
        <mxCell id="nqyS8_C2m5BWfOo8GOha-1" value="&lt;font style=&quot;font-size: 15px;&quot;&gt;Start&lt;/font&gt;" style="ellipse;whiteSpace=wrap;html=1;" vertex="1" parent="1">
          <mxGeometry x="330" y="40" width="120" height="80" as="geometry" />
        </mxCell>
        <mxCell id="nqyS8_C2m5BWfOo8GOha-39" value="" style="edgeStyle=orthogonalEdgeStyle;rounded=0;orthogonalLoop=1;jettySize=auto;html=1;" edge="1" parent="1" source="nqyS8_C2m5BWfOo8GOha-2" target="nqyS8_C2m5BWfOo8GOha-4">
          <mxGeometry relative="1" as="geometry" />
        </mxCell>
        <mxCell id="nqyS8_C2m5BWfOo8GOha-2" value="Take 3 numbers:&lt;div&gt;a,b and c from user&lt;/div&gt;" style="shape=parallelogram;perimeter=parallelogramPerimeter;whiteSpace=wrap;html=1;fixedSize=1;" vertex="1" parent="1">
          <mxGeometry x="310" y="160" width="160" height="80" as="geometry" />
        </mxCell>
        <mxCell id="nqyS8_C2m5BWfOo8GOha-6" value="" style="edgeStyle=orthogonalEdgeStyle;rounded=0;orthogonalLoop=1;jettySize=auto;html=1;" edge="1" parent="1" source="nqyS8_C2m5BWfOo8GOha-4" target="nqyS8_C2m5BWfOo8GOha-5">
          <mxGeometry relative="1" as="geometry" />
        </mxCell>
        <mxCell id="nqyS8_C2m5BWfOo8GOha-7" value="Yes" style="edgeLabel;html=1;align=center;verticalAlign=middle;resizable=0;points=[];" vertex="1" connectable="0" parent="nqyS8_C2m5BWfOo8GOha-6">
          <mxGeometry x="-0.075" y="1" relative="1" as="geometry">
            <mxPoint as="offset" />
          </mxGeometry>
        </mxCell>
        <mxCell id="nqyS8_C2m5BWfOo8GOha-12" value="" style="edgeStyle=orthogonalEdgeStyle;rounded=0;orthogonalLoop=1;jettySize=auto;html=1;" edge="1" parent="1" source="nqyS8_C2m5BWfOo8GOha-4" target="nqyS8_C2m5BWfOo8GOha-10">
          <mxGeometry relative="1" as="geometry" />
        </mxCell>
        <mxCell id="nqyS8_C2m5BWfOo8GOha-23" value="No" style="edgeLabel;html=1;align=center;verticalAlign=middle;resizable=0;points=[];" vertex="1" connectable="0" parent="nqyS8_C2m5BWfOo8GOha-12">
          <mxGeometry x="0.0933" y="-1" relative="1" as="geometry">
            <mxPoint as="offset" />
          </mxGeometry>
        </mxCell>
        <mxCell id="nqyS8_C2m5BWfOo8GOha-4" value="is a &amp;gt; b?" style="rhombus;whiteSpace=wrap;html=1;" vertex="1" parent="1">
          <mxGeometry x="325" y="270" width="130" height="130" as="geometry" />
        </mxCell>
        <mxCell id="nqyS8_C2m5BWfOo8GOha-14" value="" style="edgeStyle=orthogonalEdgeStyle;rounded=0;orthogonalLoop=1;jettySize=auto;html=1;" edge="1" parent="1" source="nqyS8_C2m5BWfOo8GOha-5">
          <mxGeometry relative="1" as="geometry">
            <mxPoint x="90" y="460" as="targetPoint" />
            <Array as="points">
              <mxPoint x="175" y="430" />
              <mxPoint x="90" y="430" />
            </Array>
          </mxGeometry>
        </mxCell>
        <mxCell id="nqyS8_C2m5BWfOo8GOha-18" value="Yes" style="edgeLabel;html=1;align=center;verticalAlign=middle;resizable=0;points=[];" vertex="1" connectable="0" parent="nqyS8_C2m5BWfOo8GOha-14">
          <mxGeometry x="-0.1733" y="3" relative="1" as="geometry">
            <mxPoint x="-18" as="offset" />
          </mxGeometry>
        </mxCell>
        <mxCell id="nqyS8_C2m5BWfOo8GOha-21" style="edgeStyle=orthogonalEdgeStyle;rounded=0;orthogonalLoop=1;jettySize=auto;html=1;" edge="1" parent="1" source="nqyS8_C2m5BWfOo8GOha-5" target="nqyS8_C2m5BWfOo8GOha-20">
          <mxGeometry relative="1" as="geometry" />
        </mxCell>
        <mxCell id="nqyS8_C2m5BWfOo8GOha-22" value="No" style="edgeLabel;html=1;align=center;verticalAlign=middle;resizable=0;points=[];" vertex="1" connectable="0" parent="nqyS8_C2m5BWfOo8GOha-21">
          <mxGeometry x="0.1846" y="-3" relative="1" as="geometry">
            <mxPoint x="-16" as="offset" />
          </mxGeometry>
        </mxCell>
        <mxCell id="nqyS8_C2m5BWfOo8GOha-5" value="is a &amp;gt; c?" style="rhombus;whiteSpace=wrap;html=1;" vertex="1" parent="1">
          <mxGeometry x="110" y="270" width="130" height="130" as="geometry" />
        </mxCell>
        <mxCell id="nqyS8_C2m5BWfOo8GOha-38" value="No" style="edgeStyle=orthogonalEdgeStyle;rounded=0;orthogonalLoop=1;jettySize=auto;html=1;entryX=0.5;entryY=0;entryDx=0;entryDy=0;" edge="1" parent="1" source="nqyS8_C2m5BWfOo8GOha-10" target="nqyS8_C2m5BWfOo8GOha-28">
          <mxGeometry relative="1" as="geometry" />
        </mxCell>
        <mxCell id="nqyS8_C2m5BWfOo8GOha-10" value="is b &amp;gt; c?" style="rhombus;whiteSpace=wrap;html=1;" vertex="1" parent="1">
          <mxGeometry x="560" y="270" width="130" height="130" as="geometry" />
        </mxCell>
        <mxCell id="nqyS8_C2m5BWfOo8GOha-17" value="&lt;font style=&quot;font-size: 15px;&quot;&gt;Stop&lt;/font&gt;" style="ellipse;whiteSpace=wrap;html=1;" vertex="1" parent="1">
          <mxGeometry x="330" y="545" width="120" height="80" as="geometry" />
        </mxCell>
        <mxCell id="nqyS8_C2m5BWfOo8GOha-34" style="edgeStyle=orthogonalEdgeStyle;rounded=0;orthogonalLoop=1;jettySize=auto;html=1;" edge="1" parent="1" source="nqyS8_C2m5BWfOo8GOha-19" target="nqyS8_C2m5BWfOo8GOha-17">
          <mxGeometry relative="1" as="geometry">
            <Array as="points">
              <mxPoint x="90" y="585" />
            </Array>
          </mxGeometry>
        </mxCell>
        <mxCell id="nqyS8_C2m5BWfOo8GOha-19" value="Display a" style="shape=parallelogram;perimeter=parallelogramPerimeter;whiteSpace=wrap;html=1;fixedSize=1;" vertex="1" parent="1">
          <mxGeometry x="30" y="460" width="120" height="60" as="geometry" />
        </mxCell>
        <mxCell id="nqyS8_C2m5BWfOo8GOha-20" value="Display c" style="shape=parallelogram;perimeter=parallelogramPerimeter;whiteSpace=wrap;html=1;fixedSize=1;" vertex="1" parent="1">
          <mxGeometry x="205" y="460" width="120" height="60" as="geometry" />
        </mxCell>
        <mxCell id="nqyS8_C2m5BWfOo8GOha-37" style="edgeStyle=orthogonalEdgeStyle;rounded=0;orthogonalLoop=1;jettySize=auto;html=1;entryX=1;entryY=0.5;entryDx=0;entryDy=0;" edge="1" parent="1" source="nqyS8_C2m5BWfOo8GOha-28" target="nqyS8_C2m5BWfOo8GOha-17">
          <mxGeometry relative="1" as="geometry">
            <Array as="points">
              <mxPoint x="720" y="585" />
            </Array>
          </mxGeometry>
        </mxCell>
        <mxCell id="nqyS8_C2m5BWfOo8GOha-28" value="Display c" style="shape=parallelogram;perimeter=parallelogramPerimeter;whiteSpace=wrap;html=1;fixedSize=1;" vertex="1" parent="1">
          <mxGeometry x="640" y="460" width="120" height="60" as="geometry" />
        </mxCell>
        <mxCell id="nqyS8_C2m5BWfOo8GOha-36" style="edgeStyle=orthogonalEdgeStyle;rounded=0;orthogonalLoop=1;jettySize=auto;html=1;" edge="1" parent="1" source="nqyS8_C2m5BWfOo8GOha-29">
          <mxGeometry relative="1" as="geometry">
            <mxPoint x="390" y="550" as="targetPoint" />
          </mxGeometry>
        </mxCell>
        <mxCell id="nqyS8_C2m5BWfOo8GOha-29" value="Display b" style="shape=parallelogram;perimeter=parallelogramPerimeter;whiteSpace=wrap;html=1;fixedSize=1;" vertex="1" parent="1">
          <mxGeometry x="460" y="460" width="120" height="60" as="geometry" />
        </mxCell>
        <mxCell id="nqyS8_C2m5BWfOo8GOha-30" style="edgeStyle=orthogonalEdgeStyle;rounded=0;orthogonalLoop=1;jettySize=auto;html=1;entryX=0.575;entryY=0.033;entryDx=0;entryDy=0;entryPerimeter=0;" edge="1" parent="1" source="nqyS8_C2m5BWfOo8GOha-10" target="nqyS8_C2m5BWfOo8GOha-29">
          <mxGeometry relative="1" as="geometry" />
        </mxCell>
        <mxCell id="nqyS8_C2m5BWfOo8GOha-32" value="Yes" style="edgeLabel;html=1;align=center;verticalAlign=middle;resizable=0;points=[];" vertex="1" connectable="0" parent="nqyS8_C2m5BWfOo8GOha-30">
          <mxGeometry x="-0.0344" relative="1" as="geometry">
            <mxPoint as="offset" />
          </mxGeometry>
        </mxCell>
        <mxCell id="nqyS8_C2m5BWfOo8GOha-35" style="edgeStyle=orthogonalEdgeStyle;rounded=0;orthogonalLoop=1;jettySize=auto;html=1;" edge="1" parent="1" source="nqyS8_C2m5BWfOo8GOha-20">
          <mxGeometry relative="1" as="geometry">
            <mxPoint x="390" y="550" as="targetPoint" />
          </mxGeometry>
        </mxCell>
      </root>
    </mxGraphModel>
  </diagram>
</mxfile>
